<?xml version="1.0" encoding="utf-8"?>
<!-- Generator: Adobe Illustrator 22.1.0, SVG Export Plug-In . SVG Version: 6.00 Build 0)  -->
<svg version="1.1" id="Layer_1" xmlns="http://www.w3.org/2000/svg" xmlns:xlink="http://www.w3.org/1999/xlink" x="0px" y="0px"
	 viewBox="0 0 512 512" style="enable-background:new 0 0 512 512;" xml:space="preserve">
<g>
	<path d="M53.5,233.5H76v135H53.5c-12.4,0-22.5-10-22.5-22.4c0,0,0,0,0-0.1v-90C31,243.6,41,233.5,53.5,233.5
		C53.5,233.5,53.5,233.5,53.5,233.5z M413.5,199.8V391c0,24.8-20.2,45-45,45h-225c-24.8,0-45-20.2-45-45V199.8
		c0-31.1,25.2-56.2,56.2-56.2c0,0,0,0,0,0h78.8v-45c0-12.4,10.1-22.5,22.5-22.5c12.4,0,22.5,10.1,22.5,22.5v45h78.7
		C388.3,143.5,413.5,168.7,413.5,199.8C413.5,199.7,413.5,199.7,413.5,199.8z M216.6,256c0-15.5-12.6-28.1-28.1-28.1
		s-28.1,12.6-28.1,28.1s12.6,28.1,28.1,28.1C204,284.1,216.6,271.5,216.6,256C216.6,256,216.6,256,216.6,256z M211,346h-45v22.5h45
		V346z M278.5,346h-45v22.5h45V346z M351.6,256c0-15.5-12.6-28.1-28.1-28.1c-15.5,0-28.1,12.6-28.1,28.1s12.6,28.1,28.1,28.1
		C339,284.1,351.6,271.5,351.6,256C351.6,256,351.6,256,351.6,256z M346,346h-45v22.5h45V346z M481,256v90c0,12.4-10,22.5-22.4,22.5
		c0,0,0,0-0.1,0H436v-135h22.5C470.9,233.5,481,243.5,481,256C481,256,481,256,481,256z"/>
</g>
</svg>
